<?xml version="1.0" encoding="UTF-8"?>
<svg version="1.1" xmlns="http://www.w3.org/2000/svg" width="3834" height="3834">
<path d="M0 0 C1265.22 0 2530.44 0 3834 0 C3834 1265.22 3834 2530.44 3834 3834 C2568.78 3834 1303.56 3834 0 3834 C0 2568.78 0 1303.56 0 0 Z " fill="#FEFEFE" transform="translate(0,0)"/>
<path d="M0 0 C2.42008622 0.00543627 4.84016267 0.00780643 7.26025391 0.00987244 C30.47455004 0.04074836 53.51827807 0.48269933 76.60809326 3.09324646 C78.666645 3.3214439 80.72629349 3.53303956 82.78710938 3.73973083 C112.80847398 6.76250008 142.63829126 12.07166981 171.85742188 19.60594177 C174.57920121 20.30373574 177.30656121 20.97360451 180.03662109 21.63816833 C245.33076997 37.78290581 307.99994002 64.86376535 365.63427734 99.31785583 C366.87781982 100.05866394 366.87781982 100.05866394 368.14648438 100.81443787 C407.59368221 124.37532867 444.84220579 152.21179857 478.53881836 183.45774841 C480.47089567 185.24749395 482.41297328 187.02324227 484.36499023 188.79148865 C491.52398723 195.2805177 498.44452033 201.97187216 505.26342773 208.81663513 C506.95947461 210.51809361 508.66087555 212.21406846 510.36279297 213.90965271 C516.00227472 219.54569851 521.45936307 225.24730048 526.63427734 231.31785583 C528.25395551 233.09355804 529.87839452 234.86493891 531.50927734 236.63035583 C535.95614212 241.51122393 540.15856635 246.54161108 544.30175781 251.6806488 C545.81649338 253.54173651 547.3509952 255.3854279 548.88818359 257.22801208 C575.71748847 289.43064089 599.19864727 324.45617121 619.43310547 361.14646912 C620.7461223 363.5200406 622.07335765 365.88541427 623.39990234 368.25144958 C666.13899524 444.9535536 694.32837327 532.93213141 706.45965576 658.06413269 C706.6084662 659.98472885 706.77768401 661.90372591 706.95117188 663.82225037 C708.01962366 676.20596976 707.87737355 688.64761747 707.88427734 701.06785583 C707.88528442 702.3254068 707.8862915 703.58295776 707.8873291 704.87861633 C707.87498039 727.80671579 706.92029868 750.50609622 704.63427734 773.31785583 C704.52889648 774.38477661 704.52889648 774.38477661 704.42138672 775.47325134 C700.65359153 813.2546415 694.15078663 852.32669875 682.79052734 888.62254333 C681.83220287 891.68529656 680.93860665 894.75715585 680.07006836 897.84617615 C664.40345478 952.92827075 641.43889061 1005.86536423 612.63427734 1055.31785583 C612.17827148 1056.11191833 611.72226563 1056.90598083 611.25244141 1057.72410583 C597.38597843 1081.85032504 581.61733645 1105.27965714 564.63427734 1127.31785583 C564.13895508 1127.96190369 563.64363281 1128.60595154 563.13330078 1129.26951599 C557.11266909 1137.06924235 550.93154577 1144.73978705 544.63427734 1152.31785583 C544.21178711 1152.82671326 543.78929688 1153.33557068 543.35400391 1153.85984802 C537.52371928 1160.86555892 531.54493745 1167.69458477 525.33740234 1174.36863708 C523.33837701 1176.52476764 521.41240677 1178.73283203 519.49633789 1180.96287537 C515.55396335 1185.47365349 511.37875886 1189.71766102 507.13818359 1193.94676208 C506.34580795 1194.74009445 505.55343231 1195.53342682 504.73704529 1196.35079956 C503.07177452 1198.01674664 501.40525706 1199.6814484 499.73754883 1201.34495544 C497.20393112 1203.87321718 494.67569567 1206.40677244 492.14794922 1208.94090271 C490.52001452 1210.56817653 488.8917696 1212.19514009 487.26318359 1213.82176208 C486.51710342 1214.56986649 485.77102325 1215.31797089 485.00233459 1216.08874512 C480.3720674 1220.69867234 475.59645964 1225.06876814 470.63427734 1229.31785583 C469.40805379 1230.38706476 468.18266174 1231.45722887 466.95849609 1232.52879333 C459.61950189 1238.92168703 452.23461115 1245.23545086 444.63427734 1251.31785583 C443.88041748 1251.92331238 443.88041748 1251.92331238 443.11132812 1252.54100037 C420.73123792 1270.47652637 397.35333306 1287.50334184 372.66162109 1302.11375427 C370.70641838 1303.27500907 368.76252258 1304.45294191 366.82177734 1305.63816833 C324.53589125 1331.40891801 279.53002005 1352.46259786 232.63427734 1368.31785583 C231.43432129 1368.72600525 230.23436523 1369.13415466 228.99804688 1369.55467224 C175.26421058 1387.71153743 119.90515935 1399.64420917 63.31689453 1404.02537537 C59.86959637 1404.29916635 56.42866033 1404.61435838 52.98583984 1404.93894958 C2.15176924 1409.39606191 -50.02944888 1407.04126951 -100.36523438 1398.80027771 C-103.35234859 1398.32000613 -106.3430085 1397.88394009 -109.33837891 1397.45848083 C-194.81282535 1385.03050744 -278.48933343 1353.05855269 -352.54345703 1308.99217224 C-355.16910252 1307.43450124 -357.80440518 1305.89496159 -360.44384766 1304.36082458 C-385.61473057 1289.63358171 -409.66513619 1272.62154637 -432.36572266 1254.31785583 C-433.30673828 1253.55988708 -434.24775391 1252.80191833 -435.21728516 1252.02098083 C-445.33122997 1243.801579 -455.27197026 1235.41278728 -464.86962891 1226.59519958 C-467.08946816 1224.56990023 -469.33965782 1222.59187813 -471.61572266 1220.63035583 C-474.7601948 1217.90131192 -477.68744738 1215.01731359 -480.60400391 1212.04832458 C-482.36013842 1210.32334102 -484.17936661 1208.72603119 -486.05322266 1207.13035583 C-493.85676019 1200.38955687 -501.10900859 1192.95830698 -507.79150391 1185.11082458 C-509.41339456 1183.26355955 -511.11232471 1181.5402887 -512.86572266 1179.81785583 C-515.80067079 1176.92169556 -518.54300864 1173.91856404 -521.23291016 1170.79441833 C-522.91482023 1168.84143118 -524.60847171 1166.90117118 -526.31103516 1164.96629333 C-533.14507009 1157.17726164 -539.69995252 1149.2354446 -546.03173828 1141.03416443 C-547.35406637 1139.33285285 -548.69249319 1137.64573133 -550.03759766 1135.96238708 C-559.99963776 1123.47598011 -569.29970165 1110.53259312 -578.17822266 1097.25535583 C-578.7002124 1096.47515076 -579.22220215 1095.69494568 -579.76000977 1094.89109802 C-583.36572266 1089.44671035 -583.36572266 1089.44671035 -583.36572266 1088.31785583 C-565.05760583 1085.32341986 -546.71809567 1082.5661712 -528.36181641 1079.88682556 C-524.61227475 1079.33910908 -520.86302516 1078.78940125 -517.11376953 1078.23973083 C-516.3576985 1078.12888908 -515.60162746 1078.01804733 -514.82264519 1077.90384674 C-513.29434865 1077.67979113 -511.76605313 1077.45572853 -510.23775864 1077.23165894 C-507.95248335 1076.8966741 -505.6671782 1076.56189359 -503.38186646 1076.22715759 C-490.04087808 1074.27268283 -476.70290986 1072.29809672 -463.36572266 1070.31785583 C-441.02903762 1067.00316082 -418.68876555 1063.71311767 -396.34710121 1060.43218422 C-392.76344827 1059.90590474 -389.17981395 1059.37949852 -385.59619141 1058.85301208 C-384.53138739 1058.69658171 -384.53138739 1058.69658171 -383.44507217 1058.53699112 C-373.35480091 1057.05434157 -363.2656606 1055.56419411 -353.17737007 1054.06812859 C-351.05796662 1053.75389047 -348.93852849 1053.43988735 -346.81907654 1053.12597656 C-346.13086476 1053.02404338 -345.44265299 1052.9221102 -344.73358631 1052.81708813 C-343.3621373 1052.61396438 -341.99068689 1052.4108501 -340.61923504 1052.20774555 C-337.32997821 1051.72049212 -334.04086355 1051.2323187 -330.75192261 1050.74293518 C-323.91399383 1049.72548933 -317.07410895 1048.72442028 -310.2310791 1047.74189758 C-307.58562498 1047.350399 -304.94821867 1046.92555951 -302.31005859 1046.48802185 C-300.87033515 1046.26557765 -299.43056137 1046.04345889 -297.99072266 1045.82176208 C-296.22341797 1045.52894348 -296.22341797 1045.52894348 -294.42041016 1045.23020935 C-290.46333667 1045.3437475 -288.99244544 1046.61774343 -286.11572266 1049.25535583 C-284.76523604 1050.71753683 -283.41476295 1052.17973032 -282.06445312 1053.64207458 C-278.59248979 1057.06713298 -274.59652164 1059.86677923 -270.67822266 1062.75535583 C-269.80770264 1063.40093445 -268.93718262 1064.04651306 -268.0402832 1064.71165466 C-215.59590031 1103.39566059 -156.89835704 1130.79461928 -93.36572266 1145.31785583 C-92.39940918 1145.54070251 -91.4330957 1145.76354919 -90.4375 1145.9931488 C-77.27314321 1148.97379921 -64.07344317 1151.00367209 -50.67822266 1152.56785583 C-49.61127167 1152.69248199 -49.61127167 1152.69248199 -48.52276611 1152.81962585 C-32.47960871 1154.6681685 -16.57183532 1155.55396909 -0.42822266 1155.56785583 C0.49903625 1155.56919525 1.42629517 1155.57053467 2.38165283 1155.57191467 C37.51279572 1155.56104558 71.89486964 1152.17570757 106.10644531 1144.1403656 C108.6135741 1143.55583156 111.1212698 1142.98632578 113.63476562 1142.43089294 C123.97354487 1140.11776681 133.97779715 1137.15229731 144.00927734 1133.75535583 C144.78463837 1133.49463287 145.55999939 1133.23390991 146.3588562 1132.96528625 C205.74224873 1112.94540541 259.92334737 1082.17106087 306.63427734 1040.31785583 C307.44276123 1039.59614197 307.44276123 1039.59614197 308.26757812 1038.85984802 C315.21470346 1032.63197959 321.89745703 1026.14961591 328.50927734 1019.56785583 C329.21101074 1018.87079529 329.91274414 1018.17373474 330.63574219 1017.45555115 C335.17199506 1012.90527419 339.45035381 1008.19217085 343.63427734 1003.31785583 C344.58386968 1002.23500964 345.5343417 1001.15293402 346.48583984 1000.07176208 C362.40326153 981.82406165 376.74660936 962.18789403 389.31298828 941.49119568 C390.74709431 939.13228735 392.19489024 936.78203244 393.64208984 934.43113708 C399.84914549 924.28875553 405.57639616 914.07759854 410.63427734 903.31785583 C411.05563965 902.43114197 411.47700195 901.5444281 411.91113281 900.63084412 C418.03876106 887.69909051 423.74100383 874.69214168 428.58789062 861.2250824 C429.32390534 859.18017732 430.06778668 857.13809498 430.81738281 855.09812927 C441.08128998 827.08379459 447.9556562 798.78245465 452.63427734 769.31785583 C452.75496582 768.58969666 452.8756543 767.86153748 453 767.11131287 C453.69988786 762.86018301 454.21375797 758.60403122 454.63427734 754.31785583 C454.76745361 753.03370789 454.76745361 753.03370789 454.90332031 751.72361755 C458.05618912 720.040742 458.50591777 686.94578022 454.63427734 655.31785583 C454.50005371 654.19282654 454.36583008 653.06779724 454.22753906 651.90867615 C448.25687511 602.96642304 435.90479007 555.85117847 414.63427734 511.31785583 C414.07305176 510.14174744 413.51182617 508.96563904 412.93359375 507.75389099 C402.97567451 486.99709169 391.74596176 467.24405785 378.63427734 448.31785583 C378.22999512 447.73342712 377.82571289 447.14899841 377.40917969 446.54685974 C371.14697433 437.53951007 364.49580503 428.8747365 357.63427734 420.31785583 C356.87244141 419.3600824 356.11060547 418.40230896 355.32568359 417.41551208 C350.56945548 411.50625898 345.57511228 405.88496842 340.40771484 400.33738708 C338.31752148 398.08731734 336.3005827 395.78370615 334.29443359 393.45848083 C330.59670471 389.21605114 326.68653844 385.22203249 322.69677734 381.25535583 C321.70000977 380.25278748 321.70000977 380.25278748 320.68310547 379.22996521 C316.72377581 375.27831611 312.65372836 371.51476275 308.41821289 367.86106873 C306.23879577 365.97574019 304.12607125 364.02300366 302.00927734 362.06785583 C295.8083222 356.4813246 289.25403209 351.39288722 282.63427734 346.31785583 C282.0074707 345.83413513 281.38066406 345.35041443 280.73486328 344.85203552 C229.73636467 305.5725615 171.21672443 278.00632339 108.74316406 262.83396912 C106.71578793 262.33780413 104.69255873 261.8271301 102.66943359 261.31394958 C90.4490203 258.26593294 78.08363778 256.19200063 65.63427734 254.31785583 C64.89806152 254.20699646 64.1618457 254.09613708 63.40332031 253.98191833 C-26.36521872 240.9534861 -118.99521213 258.7190704 -226.36572266 313.31785583 C-227.71633789 314.12005554 -227.71633789 314.12005554 -229.09423828 314.9384613 C-241.66431383 322.4377053 -253.66254588 330.53112567 -265.36572266 339.31785583 C-265.96852051 339.76757751 -266.57131836 340.21729919 -267.19238281 340.6806488 C-279.12003496 349.60189755 -290.37746875 359.27216096 -301.36572266 369.31785583 C-299.83018892 373.50053669 -297.17097467 375.11310595 -293.55322266 377.56785583 C-287.17981956 381.97080381 -281.00696088 386.5971338 -274.86572266 391.31785583 C-269.09440901 395.74356877 -263.31816195 400.13817691 -257.36572266 404.31785583 C-250.46425714 409.16392121 -243.79573652 414.3050305 -237.10400391 419.43504333 C-232.24806706 423.14881899 -227.36873588 426.80484413 -222.36572266 430.31785583 C-215.46425714 435.16392121 -208.79573652 440.3050305 -202.10400391 445.43504333 C-197.24806706 449.14881899 -192.36873588 452.80484413 -187.36572266 456.31785583 C-180.46425714 461.16392121 -173.79573652 466.3050305 -167.10400391 471.43504333 C-162.24806706 475.14881899 -157.36873588 478.80484413 -152.36572266 482.31785583 C-145.46425714 487.16392121 -138.79573652 492.3050305 -132.10400391 497.43504333 C-127.24806706 501.14881899 -122.36873588 504.80484413 -117.36572266 508.31785583 C-110.46425714 513.16392121 -103.79573652 518.3050305 -97.10400391 523.43504333 C-92.24806706 527.14881899 -87.36873588 530.80484413 -82.36572266 534.31785583 C-75.46425714 539.16392121 -68.79573652 544.3050305 -62.10400391 549.43504333 C-57.24806706 553.14881899 -52.36873588 556.80484413 -47.36572266 560.31785583 C-40.46425714 565.16392121 -33.79573652 570.3050305 -27.10400391 575.43504333 C-22.24806706 579.14881899 -17.36873588 582.80484413 -12.36572266 586.31785583 C-5.46425714 591.16392121 1.20426348 596.3050305 7.89599609 601.43504333 C12.75193761 605.14882256 17.63133031 608.80474587 22.63427734 612.31785583 C28.50095369 616.43883394 34.1955745 620.76765279 39.88427734 625.13035583 C46.3995451 630.12632654 52.95436566 635.04414098 59.63427734 639.81785583 C67.23349018 645.2485377 74.66209002 650.88309682 82.07275391 656.56761169 C87.66122981 660.84424123 93.3094734 665.00901291 99.06152344 669.0622406 C103.70145499 672.33744466 108.19770585 675.77329342 112.63427734 679.31785583 C111.32909738 682.95374284 109.76994271 685.72697793 107.39599609 688.76707458 C106.74759766 689.60560974 106.09919922 690.4441449 105.43115234 691.30809021 C104.73505859 692.19818787 104.03896484 693.08828552 103.32177734 694.00535583 C98.14807271 700.70155495 93.0472466 707.42787726 88.13427734 714.31785583 C82.76540222 721.83092808 77.19579466 729.17504294 71.57568359 736.50144958 C67.33567036 742.0435782 63.19198542 747.64111211 59.13427734 753.31785583 C53.76444303 760.83026743 48.1958224 768.17500678 42.57568359 775.50144958 C37.79166696 781.75464599 33.15197599 788.09525044 28.57446289 794.50047302 C23.64459445 801.36932685 18.50957625 808.07414995 13.36474609 814.78269958 C9.30032606 820.09469257 5.34404013 825.45893886 1.50073242 830.93211365 C-2.31805276 836.33171299 -6.34248513 841.56967 -10.36572266 846.81785583 C-16.53851291 854.87207627 -22.53221671 863.01508397 -28.36572266 871.31785583 C-30.02888592 873.65371292 -31.69710763 875.98588598 -33.36572266 878.31785583 C-36.59603682 877.70535704 -38.62708492 876.61941242 -41.24462891 874.64988708 C-41.99083496 874.09381775 -42.73704102 873.53774841 -43.50585938 872.96482849 C-44.7049292 872.05676453 -44.7049292 872.05676453 -45.92822266 871.13035583 C-47.65071015 869.84236969 -49.37337111 868.55461552 -51.09619141 867.26707458 C-51.97452637 866.60755798 -52.85286133 865.94804138 -53.7578125 865.26853943 C-56.96384751 862.87046606 -60.19257322 860.50445841 -63.42333984 858.13987732 C-71.99172483 851.86524141 -80.44948705 845.45522896 -88.88085938 838.99803162 C-94.17725319 834.95270799 -99.5267456 831.01378952 -104.98022461 827.18406677 C-111.32628885 822.69618071 -117.45981114 817.92889408 -123.62744141 813.20066833 C-128.48337825 809.48689268 -133.36270944 805.83086754 -138.36572266 802.31785583 C-145.26718817 797.47179046 -151.93570879 792.33068117 -158.62744141 787.20066833 C-163.48337825 783.48689268 -168.36270944 779.83086754 -173.36572266 776.31785583 C-180.26718817 771.47179046 -186.93570879 766.33068117 -193.62744141 761.20066833 C-198.48337825 757.48689268 -203.36270944 753.83086754 -208.36572266 750.31785583 C-215.26718817 745.47179046 -221.93570879 740.33068117 -228.62744141 735.20066833 C-233.48337825 731.48689268 -238.36270944 727.83086754 -243.36572266 724.31785583 C-250.26718817 719.47179046 -256.93570879 714.33068117 -263.62744141 709.20066833 C-268.48337825 705.48689268 -273.36270944 701.83086754 -278.36572266 698.31785583 C-285.26718817 693.47179046 -291.93570879 688.33068117 -298.62744141 683.20066833 C-303.48337825 679.48689268 -308.36270944 675.83086754 -313.36572266 672.31785583 C-320.26718817 667.47179046 -326.93570879 662.33068117 -333.62744141 657.20066833 C-338.48337825 653.48689268 -343.36270944 649.83086754 -348.36572266 646.31785583 C-355.26718817 641.47179046 -361.93570879 636.33068117 -368.62744141 631.20066833 C-373.48338292 627.48688911 -378.36277562 623.8309658 -383.36572266 620.31785583 C-389.23239901 616.19687773 -394.92701981 611.86805888 -400.61572266 607.50535583 C-407.13099042 602.50938513 -413.68581098 597.59157069 -420.36572266 592.81785583 C-427.97388658 587.38077719 -435.41059012 581.73875244 -442.83056641 576.04832458 C-447.61857402 572.38482689 -452.43291938 568.78374834 -457.36572266 565.31785583 C-463.41794077 561.0435675 -469.33991768 556.61120289 -475.24072266 552.13035583 C-476.12115234 551.46455505 -477.00158203 550.79875427 -477.90869141 550.11277771 C-488.20914101 542.25848951 -497.29600169 533.49043292 -506.375 524.28807068 C-512.18785893 518.40342473 -518.04372208 512.66230102 -524.36572266 507.31785583 C-525.32994141 506.47223083 -526.29416016 505.62660583 -527.28759766 504.75535583 C-555.85876773 480.13047997 -587.77497864 460.27677413 -621.36572266 443.31785583 C-622.77797119 442.60363464 -622.77797119 442.60363464 -624.21875 441.87498474 C-638.31865434 434.79935191 -652.69475906 428.81924787 -667.49804688 423.37547302 C-669.95218928 422.47036959 -672.39646973 421.54433103 -674.83837891 420.60691833 C-687.69401614 415.76091221 -701.03833486 412.57937745 -714.36572266 409.31785583 C-715.3426709 409.07647888 -716.31961914 408.83510193 -717.32617188 408.58641052 C-750.65926326 400.41819637 -784.44415809 396.71589289 -818.7257309 396.87122726 C-820.90181403 396.88050979 -823.07786801 396.88489414 -825.25396729 396.88856506 C-846.85455222 396.93930432 -868.02953131 397.72329705 -889.36572266 401.31785583 C-890.61224609 401.51572693 -891.85876953 401.71359802 -893.14306641 401.91746521 C-962.95043137 413.04774167 -1030.4107657 440.22825299 -1087.36572266 482.31785583 C-1088.31825928 483.01346619 -1088.31825928 483.01346619 -1089.29003906 483.72312927 C-1099.94208015 491.503615 -1110.0343212 499.77440874 -1119.87353516 508.55613708 C-1120.92154297 509.49006287 -1120.92154297 509.49006287 -1121.99072266 510.44285583 C-1122.56048828 510.96105896 -1123.13025391 511.47926208 -1123.71728516 512.01316833 C-1125.5014627 513.4252899 -1127.30196143 514.37158977 -1129.36572266 515.31785583 C-1125.94045766 518.91312479 -1122.4492469 521.81292428 -1118.36572266 524.63035583 C-1112.07120233 529.03034223 -1105.95727941 533.64173513 -1099.86572266 538.31785583 C-1094.0940766 542.74315917 -1088.31818084 547.13816365 -1082.36572266 551.31785583 C-1075.46425714 556.16392121 -1068.79573652 561.3050305 -1062.10400391 566.43504333 C-1057.24806706 570.14881899 -1052.36873588 573.80484413 -1047.36572266 577.31785583 C-1040.46425714 582.16392121 -1033.79573652 587.3050305 -1027.10400391 592.43504333 C-1022.24806239 596.14882256 -1017.36866969 599.80474587 -1012.36572266 603.31785583 C-1006.49904631 607.43883394 -1000.8044255 611.76765279 -995.11572266 616.13035583 C-988.6004549 621.12632654 -982.04563434 626.04414098 -975.36572266 630.81785583 C-967.75755874 636.25493448 -960.3208552 641.89695923 -952.90087891 647.58738708 C-947.58888592 651.65180712 -942.22463963 655.60809305 -936.75146484 659.45140076 C-930.40543284 663.93953616 -924.27173031 668.70674388 -918.10400391 673.43504333 C-913.24806706 677.14881899 -908.36873588 680.80484413 -903.36572266 684.31785583 C-896.46425714 689.16392121 -889.79573652 694.3050305 -883.10400391 699.43504333 C-878.24806706 703.14881899 -873.36873588 706.80484413 -868.36572266 710.31785583 C-861.46425714 715.16392121 -854.79573652 720.3050305 -848.10400391 725.43504333 C-843.24806706 729.14881899 -838.36873588 732.80484413 -833.36572266 736.31785583 C-826.46425714 741.16392121 -819.79573652 746.3050305 -813.10400391 751.43504333 C-808.24806239 755.14882256 -803.36866969 758.80474587 -798.36572266 762.31785583 C-792.49904631 766.43883394 -786.8044255 770.76765279 -781.11572266 775.13035583 C-774.6004549 780.12632654 -768.04563434 785.04414098 -761.36572266 789.81785583 C-753.77031916 795.2458154 -746.34565852 800.87779219 -738.93823242 806.55882263 C-732.73906913 811.30208237 -726.46212839 815.9057204 -720.08056641 820.39988708 C-717.8115096 822.00291859 -715.57717132 823.63673059 -713.36572266 825.31785583 C-714.96931436 830.64557829 -718.4420736 834.49178236 -721.86572266 838.75535583 C-726.53908945 844.66383519 -731.07000553 850.60832842 -735.39501953 856.77659607 C-739.24703349 862.22973902 -743.30331665 867.52039202 -747.36572266 872.81785583 C-751.79072083 878.58974792 -756.1860209 884.36538403 -760.36572266 890.31785583 C-765.21178803 897.21932135 -770.35289732 903.88784197 -775.48291016 910.57957458 C-779.19668581 915.43551143 -782.85271095 920.31484262 -786.36572266 925.31785583 C-791.21178803 932.21932135 -796.35289732 938.88784197 -801.48291016 945.57957458 C-805.19668581 950.43551143 -808.85271095 955.31484262 -812.36572266 960.31785583 C-817.21178803 967.21932135 -822.35289732 973.88784197 -827.48291016 980.57957458 C-831.1966949 985.43552332 -834.85248974 990.31498789 -838.36572266 995.31785583 C-842.73019984 1001.50584746 -847.27840531 1007.54344969 -851.86572266 1013.56785583 C-852.57341797 1014.49855896 -853.28111328 1015.42926208 -854.01025391 1016.38816833 C-859.10913854 1023.06127172 -859.10913854 1023.06127172 -861.36572266 1025.31785583 C-861.92855957 1024.8855365 -862.49139648 1024.45321716 -863.07128906 1024.00779724 C-876.87753306 1013.40015887 -876.87753306 1013.40015887 -890.97558594 1003.18748474 C-897.32298563 998.69813193 -903.45826733 993.93007759 -909.62744141 989.20066833 C-914.48337825 985.48689268 -919.36270944 981.83086754 -924.36572266 978.31785583 C-931.26718817 973.47179046 -937.93570879 968.33068117 -944.62744141 963.20066833 C-949.48337825 959.48689268 -954.36270944 955.83086754 -959.36572266 952.31785583 C-966.26718817 947.47179046 -972.93570879 942.33068117 -979.62744141 937.20066833 C-984.48337825 933.48689268 -989.36270944 929.83086754 -994.36572266 926.31785583 C-1001.26718817 921.47179046 -1007.93570879 916.33068117 -1014.62744141 911.20066833 C-1019.48337825 907.48689268 -1024.36270944 903.83086754 -1029.36572266 900.31785583 C-1036.26718817 895.47179046 -1042.93570879 890.33068117 -1049.62744141 885.20066833 C-1054.48337825 881.48689268 -1059.36270944 877.83086754 -1064.36572266 874.31785583 C-1071.26718817 869.47179046 -1077.93570879 864.33068117 -1084.62744141 859.20066833 C-1089.48337825 855.48689268 -1094.36270944 851.83086754 -1099.36572266 848.31785583 C-1106.26718817 843.47179046 -1112.93570879 838.33068117 -1119.62744141 833.20066833 C-1124.48337825 829.48689268 -1129.36270944 825.83086754 -1134.36572266 822.31785583 C-1141.26718817 817.47179046 -1147.93570879 812.33068117 -1154.62744141 807.20066833 C-1159.48338292 803.48688911 -1164.36277562 799.8309658 -1169.36572266 796.31785583 C-1175.23239901 792.19687773 -1180.92701981 787.86805888 -1186.61572266 783.50535583 C-1193.13099042 778.50938513 -1199.68581098 773.59157069 -1206.36572266 768.81785583 C-1213.97388658 763.38077719 -1221.41059012 757.73875244 -1228.83056641 752.04832458 C-1234.14255939 747.98390455 -1239.50680568 744.02761862 -1244.97998047 740.18431091 C-1251.32601248 735.69617551 -1257.459715 730.92896779 -1263.62744141 726.20066833 C-1268.48337825 722.48689268 -1273.36270944 718.83086754 -1278.36572266 715.31785583 C-1285.26718817 710.47179046 -1291.93570879 705.33068117 -1298.62744141 700.20066833 C-1303.48337825 696.48689268 -1308.36270944 692.83086754 -1313.36572266 689.31785583 C-1320.26718817 684.47179046 -1326.93570879 679.33068117 -1333.62744141 674.20066833 C-1338.48337825 670.48689268 -1343.36270944 666.83086754 -1348.36572266 663.31785583 C-1355.26718817 658.47179046 -1361.93570879 653.33068117 -1368.62744141 648.20066833 C-1373.48338292 644.48688911 -1378.36277562 640.8309658 -1383.36572266 637.31785583 C-1389.23239901 633.19687773 -1394.92701981 628.86805888 -1400.61572266 624.50535583 C-1407.13099042 619.50938513 -1413.68581098 614.59157069 -1420.36572266 609.81785583 C-1427.96112615 604.38989627 -1435.3857868 598.75791948 -1442.79321289 593.07688904 C-1448.99237619 588.3336293 -1455.26931692 583.72999127 -1461.65087891 579.23582458 C-1463.91993571 577.63279308 -1466.154274 575.99898108 -1468.36572266 574.31785583 C-1467.74784139 570.55932518 -1466.66220417 567.43856458 -1465.06494141 563.98582458 C-1464.58871338 562.95239929 -1464.11248535 561.918974 -1463.62182617 560.85423279 C-1463.10418701 559.74910339 -1462.58654785 558.643974 -1462.05322266 557.50535583 C-1461.51560303 556.3518866 -1460.9779834 555.19841736 -1460.42407227 554.00999451 C-1451.19247141 534.3133121 -1441.32396408 515.11056691 -1430.36572266 496.31785583 C-1429.79515137 495.33236755 -1429.22458008 494.34687927 -1428.63671875 493.33152771 C-1414.70447338 469.34161644 -1399.16820688 446.39036565 -1382.36572266 424.31785583 C-1381.78483887 423.55295837 -1381.20395508 422.78806091 -1380.60546875 421.99998474 C-1373.69973792 412.93609533 -1366.59928836 404.09801853 -1359.11572266 395.50535583 C-1356.52177343 392.52123041 -1354.03149715 389.46145386 -1351.55322266 386.38035583 C-1348.59125565 382.72993163 -1345.53152848 379.35006088 -1342.14271545 376.09579468 C-1340.38946979 374.34161561 -1338.78129722 372.52293957 -1337.17211914 370.63645935 C-1333.32205579 366.20821176 -1329.24210374 362.04984669 -1325.08837891 357.90769958 C-1324.31819931 357.13656326 -1323.54801971 356.36542694 -1322.75450134 355.57092285 C-1321.13630892 353.9520543 -1319.51687054 352.33443033 -1317.89624023 350.71800232 C-1315.43505034 348.26216866 -1312.97924457 345.80104219 -1310.52392578 343.33934021 C-1308.94156399 341.7576393 -1307.35889198 340.17624867 -1305.77587891 338.59519958 C-1305.05167252 337.86896896 -1304.32746613 337.14273834 -1303.58131409 336.39450073 C-1299.00171724 331.83559867 -1294.26286647 327.53167827 -1289.36572266 323.31785583 C-1287.75803893 321.86340066 -1286.15332551 320.40564689 -1284.55322266 318.94285583 C-1280.28826957 315.09857339 -1275.91711416 311.42258678 -1271.45166016 307.81394958 C-1269.21632449 306.00587428 -1266.9938406 304.1867282 -1264.77978516 302.35301208 C-1241.64720691 283.25856908 -1216.92712321 265.99432317 -1191.36572266 250.31785583 C-1190.74922852 249.93645447 -1190.13273437 249.5550531 -1189.49755859 249.16209412 C-1185.15828574 246.4809662 -1180.7756676 243.88090916 -1176.36572266 241.31785583 C-1175.54056152 240.83687439 -1174.71540039 240.35589294 -1173.86523438 239.8603363 C-1122.06186328 209.83761128 -1066.13653512 185.41802976 -1007.99072266 170.77488708 C-1003.87413011 169.7342519 -999.80813166 168.56989589 -995.73681641 167.36473083 C-987.71510776 165.05399331 -979.60815397 163.38767602 -971.42822266 161.75535583 C-969.98085475 161.46224067 -968.5335887 161.16862202 -967.08642578 160.87449646 C-964.21794036 160.29220362 -961.34823009 159.71656173 -958.47753906 159.14524841 C-955.89668626 158.63021129 -953.32364507 158.0945937 -950.75 157.54319763 C-940.51219316 155.38040981 -930.21879836 153.96710084 -919.84423828 152.63792419 C-916.8972467 152.25940487 -913.95179718 151.87028154 -911.00634766 151.47996521 C-897.48668082 149.71208898 -883.96147585 148.34409228 -870.36572266 147.31785583 C-869.62383698 147.259133 -868.88195129 147.20041016 -868.11758423 147.13990784 C-853.85021684 146.03870798 -839.54528857 146.16407265 -825.24487305 146.18748474 C-821.76258812 146.19316481 -818.28037989 146.18980047 -814.79809761 146.18405151 C-794.33798811 146.15525954 -773.99188524 146.56462854 -753.61572266 148.56785583 C-752.32279297 148.69426453 -751.02986328 148.82067322 -749.69775391 148.95091248 C-735.75295704 150.36187284 -721.91513869 152.460355 -708.08447266 154.71238708 C-705.75191194 155.09216325 -703.4186704 155.46780578 -701.08447266 155.83738708 C-686.97651563 158.073571 -673.17240846 161.13971994 -659.31591797 164.59617615 C-656.59626107 165.2614613 -653.87208139 165.88941341 -651.13916016 166.49754333 C-603.46591487 177.16969175 -553.75769364 194.65957745 -510.90673828 218.41819763 C-508.45443417 219.59692764 -508.45443417 219.59692764 -506.4052124 218.55918884 C-504.36322397 217.31633501 -502.86764126 216.05508103 -501.19287109 214.35618591 C-500.59835144 213.75828751 -500.00383179 213.1603891 -499.39129639 212.54437256 C-498.75895081 211.89856735 -498.12660522 211.25276215 -497.47509766 210.58738708 C-496.81165344 209.9187413 -496.14820923 209.25009552 -495.46466064 208.56118774 C-493.34353859 206.42227501 -491.22920098 204.27681964 -489.11572266 202.13035583 C-487.01572559 200.00256824 -484.91423134 197.87631754 -482.80963135 195.75308228 C-481.50219722 194.43358174 -480.19744123 193.11141979 -478.89593506 191.78607178 C-475.11253861 187.96197712 -471.20612993 184.34754039 -467.12831116 180.83862305 C-464.71982763 178.76057546 -462.38967642 176.60125946 -460.05322266 174.44285583 C-454.65102125 169.52167236 -449.05342367 164.90283931 -443.36572266 160.31785583 C-442.1356725 159.30851489 -440.90656055 158.29802985 -439.67822266 157.28660583 C-399.63492042 124.38326834 -355.65426452 96.54617021 -309.36572266 73.31785583 C-308.20943359 72.73503845 -307.05314453 72.15222107 -305.86181641 71.55174255 C-287.07981821 62.13214407 -267.94087333 53.93942337 -248.36572266 46.31785583 C-247.2472998 45.88070251 -246.12887695 45.44354919 -244.9765625 44.9931488 C-225.5736825 37.44741951 -205.91891573 31.11194625 -185.79931641 25.77488708 C-182.34002427 24.85694074 -178.89738645 23.90036942 -175.46337891 22.89207458 C-118.79846029 6.43773269 -58.83292642 -0.13749926 0 0 Z " fill="#000000" transform="translate(2297.36572265625,1213.682144165039)"/>
</svg>
